<svg width="20" height="20" viewBox="0 0 20 20" fill="none" xmlns="http://www.w3.org/2000/svg">
<path d="M17.907 12.8906C17.9692 12.9986 17.9859 13.1268 17.9535 13.2471C17.9211 13.3674 17.8423 13.4699 17.7343 13.532C17.6264 13.5942 17.4982 13.6109 17.3779 13.5785C17.2576 13.5462 17.1551 13.4673 17.0929 13.3594L15.5304 10.6187C14.6065 11.2665 13.5748 11.745 12.4836 12.032L12.9656 14.9227C12.9758 14.9834 12.9739 15.0455 12.96 15.1056C12.9462 15.1656 12.9206 15.2223 12.8849 15.2724C12.8491 15.3225 12.8038 15.3651 12.7516 15.3977C12.6993 15.4304 12.6412 15.4524 12.5804 15.4625C12.5546 15.4665 12.5285 15.4686 12.5023 15.4687C12.3916 15.4686 12.2845 15.4294 12.2 15.3579C12.1155 15.2864 12.059 15.1873 12.0406 15.0781L11.5625 12.2219C10.5271 12.3845 9.47278 12.3845 8.43746 12.2219L7.96246 15.0781C7.94399 15.1874 7.8874 15.2866 7.80273 15.3581C7.71806 15.4296 7.61079 15.4688 7.49996 15.4687C7.4738 15.4686 7.44769 15.4665 7.42184 15.4625C7.36108 15.4523 7.30294 15.4302 7.25073 15.3975C7.19853 15.3648 7.15328 15.3221 7.11758 15.2719C7.08188 15.2217 7.05643 15.1649 7.04268 15.1048C7.02893 15.0448 7.02716 14.9826 7.03746 14.9219L7.51949 12.0312C6.42822 11.7442 5.39658 11.2657 4.47262 10.618L2.90699 13.3594C2.84483 13.4673 2.74234 13.5462 2.62205 13.5785C2.50176 13.6109 2.37354 13.5942 2.26559 13.532C2.15764 13.4699 2.0788 13.3674 2.04642 13.2471C2.01404 13.1268 2.03077 12.9986 2.09293 12.8906L3.72184 10.0406C3.14234 9.55163 2.61101 9.00827 2.13512 8.41797C2.057 8.3212 2.02053 8.19737 2.03371 8.07372C2.0469 7.95006 2.10867 7.83671 2.20543 7.75859C2.30219 7.68048 2.42602 7.644 2.54968 7.65719C2.67334 7.67037 2.78669 7.73214 2.86481 7.8289C4.18277 9.46172 6.48981 11.4062 9.99996 11.4062C13.5101 11.4062 15.8171 9.46172 17.1351 7.83047C17.2132 7.7337 17.3266 7.67193 17.4502 7.65875C17.5739 7.64556 17.6977 7.68204 17.7945 7.76015C17.8913 7.83827 17.953 7.95162 17.9662 8.07528C17.9794 8.19894 17.9429 8.32277 17.8648 8.41953C17.3889 9.00983 16.8576 9.5532 16.2781 10.0422L17.907 12.8906Z" fill="black"/>
</svg>
